<?xml version="1.0" encoding="UTF-8"?> <svg xmlns="http://www.w3.org/2000/svg" width="278" height="56" viewBox="0 0 278 56" fill="none"><circle cx="27.4936" cy="28" r="27.4936" fill="#ABABAB"></circle><path d="M7.25615 31.346C6.1435 25.0358 5.58718 21.8808 6.33354 19.2408C7.06938 16.6381 8.66397 14.3607 10.8581 12.7791C13.0836 11.1748 16.2386 10.6185 22.5488 9.50583L25.6399 8.96079C31.95 7.84815 35.1051 7.29182 37.7451 8.03818C40.3478 8.77402 42.6251 10.3686 44.2068 12.5627C45.811 14.7882 46.3674 17.9433 47.48 24.2534C48.5927 30.5636 49.149 33.7187 48.4026 36.3586C47.6668 38.9614 46.0722 41.2387 43.8781 42.8204C41.6526 44.4246 38.4975 44.9809 32.1874 46.0936L29.0963 46.6386C22.7862 47.7513 19.6311 48.3076 16.9911 47.5613C14.3884 46.8254 12.1111 45.2308 10.5294 43.0367C8.92513 40.8112 8.3688 37.6561 7.25615 31.346Z" fill="#3B1082"></path><path d="M35.1086 19.3023C35.938 19.4849 36.7407 19.6409 37.5282 19.8426C38.3652 20.0556 39.1945 20.3143 40.0239 20.5464C40.1418 20.5806 40.1875 20.6263 40.1875 20.7594C40.1837 23.3502 40.2103 25.9448 40.176 28.5356C40.138 31.3204 39.2592 33.8389 37.5662 36.053C35.6793 38.5221 33.2102 40.1123 30.1895 40.8351C28.9988 41.1205 27.7852 41.2156 26.564 41.1433C23.6612 40.9721 21.0895 39.9487 18.8905 38.0503C16.6231 36.0987 15.1927 33.6411 14.6182 30.6965C14.4546 29.8595 14.3899 29.0111 14.3899 28.1589C14.3861 25.7051 14.3899 23.2551 14.3823 20.8013C14.3823 20.6377 14.4356 20.5806 14.584 20.535C16.1666 20.029 17.7796 19.6295 19.4117 19.3328C19.4269 19.329 19.4422 19.3328 19.4802 19.329C19.4802 19.3936 19.4802 19.4583 19.4802 19.5192C19.4802 22.5969 19.4688 25.6785 19.4878 28.7562C19.4992 30.3084 19.7085 31.8416 20.2373 33.3139C20.6558 34.4818 21.2759 35.5242 22.2003 36.3688C23.0677 37.1563 24.0835 37.6547 25.221 37.8982C26.8303 38.2444 28.4357 38.2177 30.0145 37.7193C31.8787 37.1335 33.1722 35.8932 34.0015 34.147C34.4466 33.215 34.7129 32.2258 34.8803 31.2101C35.0668 30.0802 35.1124 28.9388 35.1124 27.7975C35.1124 25.0508 35.1124 22.3002 35.1124 19.5534C35.1086 19.4811 35.1086 19.4127 35.1086 19.3023Z" fill="white"></path><path d="M29.5505 25.0091C28.0325 25.0091 26.5298 25.0091 25.0195 25.0091C25.0195 21.4711 25.0195 17.9368 25.0195 14.4063C25.4912 14.2579 28.6527 14.2465 29.5505 14.3949C29.5505 17.933 29.5505 21.4711 29.5505 25.0091Z" fill="white"></path><path d="M118.084 16.5207C118.084 18.9298 116.723 20.0405 114.697 20.0405C112.671 20.0405 111.357 18.9454 111.357 16.5207V8.566H106.985V16.6693C106.985 21.949 111.404 24.0217 114.72 24.0217C118.037 24.0217 122.464 21.949 122.464 16.6693V8.566H118.092L118.084 16.5207Z" fill="#3B1082"></path><path d="M103.301 12.2579V8.566H89.1042V12.2579H97.5047L88.76 20.0483V23.7401H103.825V20.0483H94.5716L103.301 12.2579Z" fill="#3B1082"></path><path d="M144.341 8.27625C141.572 8.27625 139.484 9.40258 138.451 11.1155C137.395 9.40258 135.111 8.27625 132.734 8.27625C128.064 8.27625 125.632 11.2485 125.632 14.9247V23.7398H130.004V15.5505C130.004 13.7906 130.927 12.2497 133.046 12.2497C133.477 12.2262 133.915 12.2888 134.314 12.4452C134.72 12.6017 135.088 12.8363 135.393 13.1414C135.698 13.4464 135.933 13.814 136.089 14.2208C136.238 14.6275 136.308 15.0577 136.277 15.4879V23.7476H140.649V15.4879C140.649 13.728 141.689 12.2419 143.786 12.2419C145.882 12.2419 146.891 13.7906 146.891 15.5426V23.732H151.263V14.9404C151.263 11.2641 149.011 8.2919 144.31 8.2919L144.341 8.27625Z" fill="#3B1082"></path><path d="M81.6985 16.5207C81.6985 18.9298 80.3375 20.0405 78.3273 20.0405C76.3172 20.0405 74.9718 18.9454 74.9718 16.5207V8.566H70.5995V16.6693C70.5995 21.949 75.0031 24.0217 78.3352 24.0217C81.675 24.0217 86.063 21.949 86.063 16.6693V8.566H81.6907L81.6985 16.5207Z" fill="#3B1082"></path><path d="M93.3474 41.4915C93.3474 43.1797 94.2547 44.8521 97.1225 44.8521C99.7554 44.8521 100.136 43.3144 100.136 43.3144H105.07C105.07 43.3144 104.608 48.2602 97.1306 48.2602C91.9135 48.2602 88.6325 45.4069 88.6325 40.3105C88.6325 35.23 91.9135 32.3925 97.0658 32.3925C102.17 32.3925 105.434 35.23 105.434 40.3105C105.434 40.8812 105.353 41.4915 105.353 41.4915H93.3474ZM93.4122 38.8125H100.655C100.655 37.5919 99.9255 35.8244 97.0577 35.8244C94.2466 35.8244 93.4122 37.584 93.4122 38.8125Z" fill="#3B1082"></path><path d="M130.24 41.4915C130.24 43.1797 131.147 44.8521 134.015 44.8521C136.648 44.8521 137.028 43.3144 137.028 43.3144H141.962C141.962 43.3144 141.5 48.2602 134.023 48.2602C128.806 48.2602 125.525 45.4069 125.525 40.3105C125.525 35.23 128.806 32.3925 133.958 32.3925C139.062 32.3925 142.327 35.23 142.327 40.3105C142.327 40.8812 142.246 41.4915 142.246 41.4915H130.24ZM130.305 38.8125H137.547C137.547 37.5919 136.818 35.8244 133.95 35.8244C131.147 35.8244 130.305 37.584 130.305 38.8125Z" fill="#3B1082"></path><path d="M86.1537 37.2895C86.1537 33.9606 83.618 32.2723 78.5143 32.2803C74.9984 32.2803 70.9073 33.2234 70.9073 36.9011C70.9073 38.8509 72.0982 40.3885 73.8399 40.9116C75.6465 41.4506 77.4531 41.7201 79.3082 41.8548C80.3371 41.9341 82.257 42.2273 82.257 43.3449C82.2408 44.3832 81.05 44.8984 78.7087 44.8984C76.2703 44.8984 75.2171 44.3752 75.2171 42.9803V42.5126H70.5995V42.9803C70.5995 46.436 73.281 48.1559 78.7006 48.1559C84.1365 48.1718 86.8828 46.547 86.8828 43.3052C86.8828 40.8561 85.0924 39.366 82.8727 38.938C80.7178 38.5021 78.4819 38.4546 76.6915 37.9949C75.9138 37.7888 75.5169 37.3687 75.5169 36.9328C75.5169 36.0054 76.4647 35.5378 78.4171 35.5378C80.3371 35.5378 81.5441 35.7994 81.5441 37.2895H86.1537Z" fill="#3B1082"></path><path d="M174.57 37.2895C174.57 33.9606 172.034 32.2723 166.93 32.2803C163.414 32.2803 159.323 33.2234 159.323 36.9011C159.323 38.8509 160.514 40.3885 162.256 40.9116C164.062 41.4506 165.869 41.7201 167.724 41.8548C168.753 41.9341 170.673 42.2273 170.673 43.3449C170.657 44.3832 169.466 44.8984 167.125 44.8984C164.686 44.8984 163.633 44.3752 163.633 42.9803V42.5126H159.023V42.9803C159.023 46.436 161.705 48.1559 167.125 48.1559C172.56 48.1718 175.307 46.547 175.307 43.3052C175.307 40.8561 173.516 39.366 171.297 38.938C169.142 38.5021 166.906 38.4546 165.115 37.9949C164.338 37.7967 163.941 37.3766 163.941 36.9407C163.941 36.0134 164.889 35.5457 166.841 35.5457C168.761 35.5457 169.968 35.8073 169.968 37.2974H174.57V37.2895Z" fill="#3B1082"></path><path d="M145.365 37.773V47.8152H149.853V41.0781C149.853 38.4863 151.789 36.814 154.227 36.814H157.16V32.2724H154.956C152.242 32.2724 150.282 34.5313 149.853 35.8549V35.3873V32.5815H145.365V37.773Z" fill="#3B1082"></path><path d="M113.673 26.6294H109.185V47.8154H113.673V26.6294Z" fill="#3B1082"></path><path d="M122.479 26.6294H117.991V47.8154H122.479V26.6294Z" fill="#3B1082"></path><path fill-rule="evenodd" clip-rule="evenodd" d="M277.165 34.4912C275.286 27.4301 189.262 27.4301 187.382 34.491C186.273 38.6796 186.273 42.4903 187.382 46.6787C189.262 53.7398 275.286 53.7399 277.165 46.6789C278.274 42.4904 278.274 38.6796 277.165 34.4911V34.4912Z" fill="#3B1082"></path><path d="M253.409 37.1974C252.084 37.1974 251.089 37.733 250.596 38.5441C250.097 37.733 249.005 37.1974 247.869 37.1974C245.647 37.1974 244.496 38.6176 244.496 40.3591V44.5675H246.581V40.6529C246.581 39.8235 247.025 39.0858 248.032 39.0858C249.038 39.0858 249.571 39.7898 249.571 40.6253V44.5705H251.655V40.6253C251.655 39.7959 252.151 39.0858 253.149 39.0858C254.15 39.0858 254.63 39.8235 254.63 40.6529V44.5675H256.715V40.3591C256.715 38.6145 255.64 37.1974 253.409 37.1974Z" fill="white"></path><path d="M224.376 41.9048V37.3139H222.355L222.371 38.431C221.93 37.776 221.159 37.17 219.788 37.17C217.428 37.17 216.216 39.0095 216.216 40.8458C216.173 42.7037 217.544 44.5584 219.687 44.5584C220.825 44.5584 221.86 44.0534 222.355 43.1658C222.564 43.7504 223.062 44.3931 224.115 44.3931H225.285V42.6761H224.96C224.556 42.6761 224.376 42.5261 224.376 41.9048ZM220.213 42.7863C219.059 42.7863 218.187 41.9844 218.187 40.8612C218.187 39.7379 219.059 38.9666 220.213 38.9666C221.367 38.9666 222.276 39.744 222.276 40.8612C222.273 41.9783 221.407 42.7863 220.213 42.7863Z" fill="white"></path><path d="M205.238 41.9048V37.3139H203.218L203.233 38.431C202.792 37.776 202.021 37.17 200.65 37.17C198.293 37.17 197.078 39.0095 197.078 40.8458C197.035 42.7037 198.406 44.5584 200.549 44.5584C201.687 44.5584 202.722 44.0534 203.218 43.1658C203.426 43.7504 203.925 44.3931 204.977 44.3931H206.144V42.6761H205.819C205.421 42.6761 205.238 42.5261 205.238 41.9048ZM201.075 42.7863C199.921 42.7863 199.049 41.9844 199.049 40.8612C199.049 39.7379 199.921 38.9666 201.075 38.9666C202.229 38.9666 203.138 39.744 203.138 40.8612C203.138 41.9783 202.272 42.7863 201.075 42.7863Z" fill="white"></path><path d="M230.032 44.5585C232.468 44.5585 234.216 43.4077 234.216 40.595V35.1164H232.19V38.0485C231.599 37.4731 230.825 37.1915 229.711 37.1915C227.274 37.1915 225.909 38.8565 225.909 40.8674C225.906 43.2669 227.782 44.5585 230.032 44.5585ZM230.047 38.9453C231.213 38.9453 232.083 39.7472 232.083 40.8704C232.083 41.9937 231.216 42.765 230.047 42.765C228.878 42.765 227.984 41.9784 227.984 40.8704C227.984 39.7594 228.857 38.9453 230.047 38.9453Z" fill="white"></path><path d="M237.613 41.4093C237.613 42.1959 238.023 42.9733 239.33 42.9733C240.527 42.9733 240.701 42.2602 240.701 42.2602H242.945C242.945 42.2602 242.736 44.5587 239.333 44.5587C236.961 44.5587 235.464 43.2335 235.464 40.8615C235.464 38.4895 236.958 37.1795 239.302 37.1795C241.644 37.1795 243.11 38.4987 243.11 40.8615C243.11 41.1278 243.073 41.4093 243.073 41.4093H237.613ZM237.64 40.1636H240.937C240.937 39.5944 240.606 38.7711 239.299 38.7711C237.995 38.7711 237.64 39.5913 237.64 40.1636Z" fill="white"></path><path d="M263.938 37.5131L262.034 42.5264L259.748 37.5131H257.391L261.012 44.9352C260.672 45.7799 260.393 46.0247 259.699 46.0247H258.646V47.803H259.888C261.419 47.803 262.239 46.9582 263.084 44.9352L266.163 37.5131H263.938Z" fill="white"></path><path d="M211.016 44.5589C213.823 44.5589 214.967 42.649 214.967 41.5166H212.868C212.868 41.5166 212.601 42.8051 211.013 42.8051C209.767 42.8051 209.073 41.9696 209.073 40.8739C209.073 39.7781 209.767 38.9487 211.013 38.9487C212.598 38.9487 212.868 40.2372 212.868 40.2372H214.967C214.967 39.1048 213.82 37.1888 211.016 37.1888C208.678 37.1888 206.979 38.5233 206.979 40.8708C206.979 43.2183 208.681 44.5528 211.016 44.5528V44.5589Z" fill="white"></path></svg> 